<?xml version="1.0" encoding="UTF-8" standalone="no"?>
<!-- Created with Inkscape (http://www.inkscape.org/) -->

<svg
   width="942.55719mm"
   height="438.20053mm"
   viewBox="0 0 942.55719 438.20053"
   version="1.1"
   id="svg5"
   inkscape:version="1.1.2 (b8e25be833, 2022-02-05)"
   sodipodi:docname="structure.svg"
   inkscape:export-filename="D:\Local_Project\5000_HaMaruki\5000.003_smartphOto\smartphOto\doc\structure.png"
   inkscape:export-xdpi="96"
   inkscape:export-ydpi="96"
   xmlns:inkscape="http://www.inkscape.org/namespaces/inkscape"
   xmlns:sodipodi="http://sodipodi.sourceforge.net/DTD/sodipodi-0.dtd"
   xmlns:xlink="http://www.w3.org/1999/xlink"
   xmlns="http://www.w3.org/2000/svg"
   xmlns:svg="http://www.w3.org/2000/svg">
  <sodipodi:namedview
     id="namedview7"
     pagecolor="#ffffff"
     bordercolor="#666666"
     borderopacity="1.0"
     inkscape:pageshadow="2"
     inkscape:pageopacity="0.0"
     inkscape:pagecheckerboard="0"
     inkscape:document-units="mm"
     showgrid="false"
     inkscape:zoom="0.27496365"
     inkscape:cx="1942.0749"
     inkscape:cy="1018.3164"
     inkscape:window-width="2560"
     inkscape:window-height="1369"
     inkscape:window-x="-8"
     inkscape:window-y="-8"
     inkscape:window-maximized="1"
     inkscape:current-layer="layer1"
     fit-margin-top="0"
     fit-margin-left="0"
     fit-margin-right="0"
     fit-margin-bottom="0" />
  <defs
     id="defs2">
    <marker
       style="overflow:visible"
       id="Arrow1Mend"
       refX="0"
       refY="0"
       orient="auto"
       inkscape:stockid="Arrow1Mend"
       inkscape:isstock="true">
      <path
         transform="matrix(-0.4,0,0,-0.4,-4,0)"
         style="fill:context-stroke;fill-rule:evenodd;stroke:context-stroke;stroke-width:1pt"
         d="M 0,0 5,-5 -12.5,0 5,5 Z"
         id="path4165" />
    </marker>
    <marker
       style="overflow:visible"
       id="Arrow1Lend"
       refX="0"
       refY="0"
       orient="auto"
       inkscape:stockid="Arrow1Lend"
       inkscape:isstock="true">
      <path
         transform="matrix(-0.8,0,0,-0.8,-10,0)"
         style="fill:context-stroke;fill-rule:evenodd;stroke:context-stroke;stroke-width:1pt"
         d="M 0,0 5,-5 -12.5,0 5,5 Z"
         id="path4159" />
    </marker>
    <marker
       style="overflow:visible"
       id="marker4426"
       refX="0"
       refY="0"
       orient="auto"
       inkscape:stockid="Arrow1Lstart"
       inkscape:isstock="true">
      <path
         transform="matrix(0.8,0,0,0.8,10,0)"
         style="fill:context-stroke;fill-rule:evenodd;stroke:context-stroke;stroke-width:1pt"
         d="M 0,0 5,-5 -12.5,0 5,5 Z"
         id="path4424" />
    </marker>
    <marker
       style="overflow:visible"
       id="Arrow1Lstart"
       refX="0"
       refY="0"
       orient="auto"
       inkscape:stockid="Arrow1Lstart"
       inkscape:isstock="true">
      <path
         transform="matrix(0.8,0,0,0.8,10,0)"
         style="fill:context-stroke;fill-rule:evenodd;stroke:context-stroke;stroke-width:1pt"
         d="M 0,0 5,-5 -12.5,0 5,5 Z"
         id="path4156" />
    </marker>
    <linearGradient
       inkscape:collect="always"
       id="linearGradient71671">
      <stop
         style="stop-color:#54a23c;stop-opacity:1;"
         offset="0"
         id="stop71667" />
      <stop
         style="stop-color:#54a23c;stop-opacity:0;"
         offset="1"
         id="stop71669" />
    </linearGradient>
    <linearGradient
       inkscape:collect="always"
       id="linearGradient62784">
      <stop
         style="stop-color:#54a23c;stop-opacity:1;"
         offset="0"
         id="stop62780" />
      <stop
         style="stop-color:#c4dca8;stop-opacity:1"
         offset="1"
         id="stop62782" />
    </linearGradient>
    <linearGradient
       inkscape:collect="always"
       xlink:href="#linearGradient62784"
       id="linearGradient62786"
       x1="130.40839"
       y1="123.12758"
       x2="268.86276"
       y2="123.12758"
       gradientUnits="userSpaceOnUse" />
    <linearGradient
       inkscape:collect="always"
       xlink:href="#linearGradient71671"
       id="linearGradient71673"
       x1="130.40839"
       y1="123.12758"
       x2="268.86276"
       y2="123.12758"
       gradientUnits="userSpaceOnUse" />
  </defs>
  <g
     inkscape:label="Layer 1"
     inkscape:groupmode="layer"
     id="layer1"
     transform="translate(2349.3086,37.109932)">
    <path
       style="fill:#000000;stroke-width:0.743482"
       d="m -1553.9614,395.09601 c -1.8402,-0.14558 -9.2006,-0.6304 -16.3567,-1.0774 -14.1067,-0.88118 -25.5846,-2.75805 -30.6973,-5.01958 -4.4281,-1.95877 -8.3778,-6.24319 -9.9752,-10.8207 -1.2624,-3.61732 -1.3344,-10.36739 -1.3344,-125.19734 0,-96.60343 -0.1897,-121.37387 -0.9294,-121.37391 -0.729,-1e-5 -0.9293,-6.88966 -0.9293,-31.969868 0,-18.864826 0.2792,-31.969847 0.6811,-31.969847 0.3949,0 0.8077,-11.638146 0.9823,-27.694809 0.3401,-31.2627077 0.5,-32.2854907 5.8866,-37.6721267 6.9866,-6.98652 19.6785,-8.905435 69.7143,-10.540232 26.6667,-0.871279 67.3851,-0.146886 89.2284,1.587375 21.8676,1.73621 31.0406,4.657521 35.4851,11.300977 3.303,4.93723 3.9675,9.0922207 3.9675,24.8098247 0,8.985172 0.2581,13.602267 0.7435,13.302253 0.4848,-0.299667 0.7435,4.081441 0.7435,12.59537 0,8.084317 -0.2791,13.054859 -0.7331,13.054859 -0.4788,0 -0.8012,53.318174 -0.9295,153.715484 l -0.1962,153.71549 -2.1022,4.28122 c -4.329,8.81562 -12.1011,11.67817 -38.0459,14.01245 -8.2497,0.74224 -97.6449,1.55842 -105.2031,0.96051 z m 96.653,-3.23159 c 15.5451,-0.95339 27.281,-2.53031 33.787,-4.5398 3.8098,-1.17671 5.3658,-2.14769 7.7108,-4.81181 1.7266,-1.96161 3.2802,-4.69691 3.7681,-6.63463 0.5999,-2.38221 0.8302,-52.98703 0.8302,-182.38442 0,-200.7825237 0.4856,-184.0991797 -5.5199,-189.6348717 -3.8423,-3.54169095 -7.7255,-4.84817395 -19.0151,-6.397595 -15.8375,-2.173572 -36.6064,-3.007569 -74.7203,-3.000468 -48.2829,0.0093 -74.4356,1.631896 -86.4693,5.36586605 -5.1902,1.61045395 -9.348,5.24787295 -11.0546,9.67085695 -1.3037,3.3789087 -1.3596,10.9464827 -1.3596,184.1904917 0,196.48576 -0.2806,183.75461 4.1625,188.81504 5.3281,6.06839 16.7931,8.13777 55.6881,10.05149 16.3836,0.80613 74.9432,0.36773 92.1921,-0.69015 z M -1603.775,190.7141 V 25.288736 h 93.3074 93.3074 V 190.7141 356.13948 h -93.3074 -93.3074 z m 185.6872,-0.18586 -0.1877,-164.124278 -92.0062,-0.188786 -92.0062,-0.188785 V 190.33945 354.65251 h 92.1937 92.1938 z m -101.6733,154.57052 c 0,-2.81128 0.085,-2.89844 4.7457,-4.87943 l 4.746,-2.01701 4.9193,2.2306 c 4.7258,2.14271 4.9196,2.33491 4.9196,4.87941 v 2.64883 h -9.6653 -9.6653 z m 17.8436,0.003 c 0,-1.86818 -0.5001,-2.32935 -4.2751,-3.94219 l -4.275,-1.82653 -4.275,1.8873 c -3.718,1.64139 -4.2751,2.15508 -4.2751,3.94221 v 2.05489 h 8.5501 8.5501 z m 36.4307,-0.48652 v -3.34569 h 7.435 7.4348 v 3.34569 3.34568 h -7.4348 -7.435 z m 13.3828,0 v -2.60221 h -6.3196 -6.3196 v 2.60221 2.6022 h 6.3196 6.3196 z m -109.6734,2.05007 c 3.4218,-0.34877 4.9271,-1.33504 4.3466,-2.84791 -0.3049,-0.79409 -1.8755,-1.06061 -6.2522,-1.06061 -4.8901,0 -5.7751,0.1822 -5.417,1.11523 0.6462,1.68403 -0.722,1.33675 -1.8501,-0.46957 -0.8697,-1.39257 -0.7918,-1.77583 0.6423,-3.15981 1.5787,-1.52346 1.6175,-1.52634 1.1896,-0.0881 -0.4179,1.40464 -0.1443,1.47422 4.9408,1.25685 6.4465,-0.27557 8.4857,0.73805 7.7092,3.83187 -0.4628,1.84436 -0.7516,1.96616 -4.3846,1.8494 -3.4997,-0.11243 -3.5923,-0.15524 -0.9246,-0.42714 z m 113.5098,-4.09439 -0.1189,-2.78807 h -6.6914 c -3.6802,0 -6.6914,-0.28531 -6.6914,-0.63403 0,-0.34871 3.0387,-0.63873 6.7526,-0.64448 7.3874,-0.0116 7.688,0.17163 7.1733,4.36755 l -0.3052,2.4871 z m -65.0587,-329.050578 c -1.6142,-1.783726 -1.5617,-4.0580257 0.1292,-5.5882317 2.7329,-2.473215 6.8186,-0.760246 6.8186,2.8587117 0,3.684733 -4.4878,5.447816 -6.9478,2.72952 z m -65.9137,-1.198677 c 0,-1.5272 1.5392,-2.277584 2.2646,-1.103994 0.3363,0.54402 0.4463,1.25602 0.2448,1.582223 -0.6249,1.011025 -2.5094,0.651873 -2.5094,-0.478229 z"
       id="path1588" />
    <path
       style="fill:#95cf00;fill-opacity:1;stroke-width:0.307003"
       d="m -1515.1455,194.89527 c -3.2548,-0.91675 -5.5898,-3.06617 -6.5847,-6.06142 -0.4119,-1.24036 -0.4696,-3.14695 -0.392,-12.97312 l 0.091,-11.51906 -4.7587,-0.10895 c -4.1518,-0.0952 -4.958,-0.19845 -6.3239,-0.81077 -1.8319,-0.8213 -3.7684,-2.70831 -4.7791,-4.65715 l -0.7165,-1.38151 -0.081,-34.76813 -0.08,-34.768132 h 43.6022 43.6022 l -0.081,34.768132 -0.08,34.76813 -0.7166,1.38151 c -1.0107,1.94884 -2.9472,3.83585 -4.7791,4.65715 -1.3659,0.61232 -2.1721,0.71567 -6.3239,0.81077 l -4.7585,0.10895 0.091,11.59274 c 0.086,11.00986 0.059,11.67619 -0.5311,13.25248 -0.888,2.37198 -2.1793,3.77779 -4.5353,4.93764 -3.8374,1.88916 -8.0963,1.16363 -10.9257,-1.86131 -2.4887,-2.66062 -2.5185,-2.85299 -2.5185,-16.22957 v -11.74296 h -8.4427 -8.4425 v 11.74296 c 0,10.839 -0.045,11.86044 -0.5887,13.26931 -1.6233,4.20907 -6.6815,6.79337 -10.9457,5.59231 z m -42.2328,-50.262 c -2.8683,-0.88488 -5.603,-3.85226 -6.2256,-6.75485 -0.4388,-2.04615 -0.4607,-40.373844 -0.024,-42.674658 0.9099,-4.798199 5.9761,-8.090571 10.9213,-7.097435 3.5422,0.711362 6.4814,3.543049 7.1823,6.919626 0.2231,1.074371 0.3035,8.358027 0.246,22.305687 l -0.085,20.7104 -0.7065,1.53502 c -1.5164,3.29487 -4.2876,5.10706 -8.0431,5.25963 -1.2664,0.0514 -2.7356,-0.04 -3.2651,-0.20342 z m 119.0053,0.0473 c -2.7508,-0.9044 -4.7636,-2.64723 -5.894,-5.10349 l -0.7066,-1.53502 -0.085,-20.7104 c -0.057,-13.94766 0.023,-21.231318 0.2461,-22.305689 0.701,-3.376577 3.6401,-6.208264 7.1822,-6.919626 4.9872,-1.001572 10.0352,2.316026 10.9357,7.187047 0.202,1.092658 0.2844,9.099318 0.2285,22.228238 l -0.087,20.52043 -0.8565,1.74427 c -1.5679,3.19269 -4.2394,4.9027 -7.893,5.05231 -1.2664,0.0519 -2.648,-0.0193 -3.0702,-0.15807 z m -100.3901,-64.481635 c 0,-0.829403 0.1982,-2.521764 0.4405,-3.760797 1.8914,-9.67392 8.8203,-18.342404 18.9825,-23.748417 l 2.6661,-1.418234 -3.8482,-5.681429 c -2.1163,-3.124798 -3.8042,-5.908134 -3.7509,-6.185209 0.053,-0.277075 0.4628,-0.709064 0.9098,-0.959985 0.6991,-0.392377 0.8854,-0.395927 1.3319,-0.02541 0.2856,0.23695 2.2617,2.962455 4.3916,6.056678 2.8624,4.158627 3.9957,5.577998 4.3454,5.442379 1.6834,-0.652859 6.2203,-1.799181 9.2227,-2.330217 4.9241,-0.870954 12.8822,-0.870954 17.8061,0 3.0089,0.532173 7.5393,1.677405 9.2314,2.333547 0.3612,0.140051 1.4519,-1.224587 4.3585,-5.453158 2.1322,-3.101974 4.1044,-5.828976 4.3828,-6.059997 0.4297,-0.356522 0.6291,-0.351057 1.3189,0.0362 0.4471,0.250921 0.8581,0.691033 0.9133,0.978028 0.056,0.286996 -1.6351,3.069033 -3.7564,6.182308 l -3.8569,5.660509 2.6714,1.421123 c 11.1355,5.923775 18.5906,16.13553 19.3371,26.487336 l 0.1826,2.532775 h -43.6401 -43.6401 z m 26.728,-10.95643 c 0.2637,-0.06997 0.9427,-0.60532 1.5089,-1.189638 1.3425,-1.385118 1.6268,-3.736813 0.6413,-5.306191 -1.0355,-1.649174 -2.3348,-2.275786 -4.4379,-2.140422 -1.6605,0.106867 -1.9054,0.220335 -2.9933,1.386557 -1.4921,1.599663 -1.6977,3.595984 -0.5603,5.43848 1.1665,1.889234 3.1873,2.515857 5.8413,1.811214 z m 38.2033,-0.448769 c 2.405,-1.442844 2.7907,-4.678233 0.8107,-6.800925 -1.0878,-1.166222 -1.3329,-1.27969 -2.9933,-1.386557 -1.4299,-0.09201 -2.0179,0.01508 -2.8091,0.511728 -1.607,1.008836 -2.2779,2.347819 -2.1362,4.262998 0.1021,1.378098 0.2904,1.803161 1.2038,2.716606 1.6554,1.655498 3.8877,1.917801 5.9241,0.69615 z"
       id="path1713" />
    <path
       style="fill:#000000;stroke-width:0.621036"
       d="m -1963.478,400.56418 c -3.4157,-0.27269 -10.8214,-0.95434 -16.4573,-1.51478 -16.2291,-1.61378 -17.9194,-2.88865 -17.9572,-13.54486 -0.028,-7.99368 0.9227,-10.18591 7.238,-16.68745 9.8664,-10.15705 23.4461,-17.44545 38.6656,-20.75252 7.1177,-1.54661 22.0615,-1.53968 30.7414,0.0142 13.0928,2.34386 22.7705,6.64322 26.7771,11.89578 1.5838,2.07609 1.7905,2.85528 1.7905,6.74315 0,6.35823 -2.5166,10.61864 -8.5132,14.41122 -3.7522,2.37316 -42.6835,18.26226 -47.0695,19.2105 -4.3877,0.94866 -5.8731,0.97058 -15.2154,0.22464 z m 13.4725,-14.51129 c 1.862,-0.67632 4.6966,-2.69947 7.8461,-5.59963 9.2021,-8.47347 16.7151,-11.83341 28.6208,-12.79959 11.2904,-0.91628 12.8665,-1.4031 11.1682,-3.44942 -2.4831,-2.99186 -12.5224,-6.31142 -24.391,-8.06504 -20.5924,-3.04258 -41.3907,3.41059 -56.1717,17.42861 -4.6638,4.42292 -6.3179,6.77576 -6.3179,8.98673 0,1.43117 3.6039,2.69814 11.7507,4.13114 6.6921,1.17711 23.5828,0.78836 27.4948,-0.6328 z m 34.6581,-8.0118 3.4156,-1.33822 -2.3923,-0.19646 c -4.7992,-0.39426 -15.3519,4.07201 -19.6544,8.31845 -1.3097,1.29267 -0.2418,0.98674 6.8313,-1.95661 4.6111,-1.91887 9.9211,-4.09106 11.7998,-4.8271 z m -305.7055,5.78293 c -115.991,-7.54834 -122.2975,-8.01857 -124.3209,-9.26902 -2.6558,-1.64153 -4.4171,-5.78741 -3.8173,-8.98571 0.4953,-2.6392 2.8186,-5.54324 5.1605,-6.44988 0.9463,-0.36633 14.9953,-3.79621 31.2196,-7.62198 27.4751,-6.47863 30.032,-6.97494 37.2623,-7.23277 5.6873,-0.2028 40.3092,1.81541 129.486,7.54829 66.9478,4.30388 122.6875,7.98502 123.8661,8.18034 1.3393,0.22204 3.0279,1.24001 4.5026,2.71472 2.1683,2.16853 2.3595,2.64025 2.3595,5.82674 0,2.97945 -0.2664,3.7706 -1.894,5.62446 -1.0419,1.18652 -2.7884,2.44133 -3.8817,2.78844 -1.093,0.34713 -14.5632,3.56451 -29.9338,7.14976 -27.2808,6.36329 -35.9588,7.89472 -43.9141,7.74961 -2.148,-0.0391 -58.8908,-3.64953 -126.0948,-8.023 z m 135.5577,-1.24494 c 4.6959,-0.57526 60.7724,-13.35939 61.414,-14.00095 0.1441,-0.14241 -0.2953,-0.25924 -0.973,-0.25924 -0.6775,0 -55.4298,-3.50972 -121.6713,-7.79935 -83.5123,-5.40803 -122.7242,-7.72423 -127.8916,-7.55435 -6.8732,0.22602 -9.6492,0.76525 -35.7095,6.93758 -15.5414,3.68095 -28.4584,6.87636 -28.7045,7.10098 -0.4194,0.38322 235.4647,15.97457 244.2202,16.14235 2.2293,0.0427 6.4212,-0.21242 9.3157,-0.56702 z m 8.0572,-40.36576 c -64.03,-3.14892 -79.4612,-4.42809 -84.0624,-6.96835 -4.9371,-2.7258 -6.8183,-8.3218 -4.226,-12.57256 2.5925,-4.25114 8.9129,-6.33323 32.0844,-10.56944 29.3542,-5.36653 29.8838,-5.6484 29.7302,-15.82431 -0.08,-5.2951 -3.9935,-24.41886 -5.2709,-25.75562 -0.3403,-0.35631 -29.5189,-1.55317 -71.2058,-2.92073 -38.8462,-1.27438 -72.306,-2.5739 -74.3553,-2.8878 -2.0497,-0.3139 -5.0769,-1.20702 -6.7275,-1.98471 -6.5822,-3.1014 -12.7056,-10.84897 -14.0605,-17.79087 -0.4178,-2.13984 0.7344,-35.078 4.0155,-114.78751 2.5308,-61.48261 4.7485,-113.373798 4.9283,-115.313759 0.9609,-10.37661 8.4244,-19.219614 18.4653,-21.878524 3.6482,-0.965978 16.6706,-1.028954 177.8266,-0.860047 l 173.89,0.182145 4.207,1.992652 c 5.2538,2.488575 10.1674,7.297778 12.5585,12.29117 1.4543,3.037096 1.8294,4.759912 2.0287,9.315546 0.2968,6.787183 -10.0876,233.749527 -10.9494,239.308267 -1.2665,8.17248 -6.4202,15.02005 -14.1787,18.83966 -3.88,1.91007 -4.7151,2.07901 -11.0418,2.23382 -3.7645,0.0923 -29.4815,-0.631 -57.1486,-1.60691 -27.6671,-0.97593 -50.3483,-1.74998 -50.4025,-1.72009 -0.053,0.0299 1.9841,3.40585 4.53,7.50215 6.1065,9.82561 11.5765,20.65497 13.2869,26.30502 2.31,7.63108 0.9389,12.71141 -5.1768,19.1778 -6.348,6.71215 -15.1206,11.32721 -27.7569,14.60222 -6.4559,1.67325 -8.2454,1.86899 -18.631,2.03808 -6.3191,0.10276 -16.3799,-0.0535 -22.3573,-0.34741 z m 33.0948,-8.97761 c 15.2783,-2.66432 28.303,-9.61391 32.15,-17.15427 1.5979,-3.13263 1.5348,-4.08687 -0.6452,-9.73096 -2.6089,-6.75463 -17.3231,-32.16106 -19.3525,-33.41535 -0.6218,-0.38432 -67.0853,-2.84509 -67.4339,-2.49667 -0.1014,0.1017 0.6404,3.6517 1.649,7.88898 3.6729,15.43213 3.8985,22.83351 0.8846,29.03646 -3.0456,6.26905 -8.87,8.57784 -32.4456,12.86173 -17.2266,3.13018 -24.845,4.83973 -27.2673,6.11866 l -1.6792,0.88668 1.5524,0.5814 c 4.0875,1.53068 27.5119,3.19113 80.1139,5.67894 17.2134,0.81411 26.7711,0.73889 32.4738,-0.2556 z m -13.8427,-18.35768 c -16.5663,-0.95783 -31.0288,-1.76173 -32.1387,-1.78644 -4.114,-0.0916 -5.9804,-4.65021 -3.0366,-7.41605 l 1.466,-1.37725 34.4537,1.89005 c 18.9494,1.0395 34.7782,1.89002 35.1752,1.89002 1.3723,0 3.2055,2.48607 3.2055,4.34726 0,1.03504 -0.5518,2.41511 -1.2418,3.10518 -1.5281,1.52803 0.4128,1.56145 -37.8833,-0.65277 z m 150.2687,-48.09084 c 3.7848,-1.33536 6.9727,-4.10646 8.9918,-7.81607 1.9486,-3.58014 2.2469,-6.3663 3.1588,-29.50879 l 0.4427,-11.23355 -11.4092,-0.38135 c -25.6809,-0.85838 -358.8803,-8.71818 -359.1095,-8.47097 -0.1369,0.14721 -0.563,7.40117 -0.9481,16.11993 -0.6244,14.13476 -0.5913,16.22065 0.306,19.25213 1.4153,4.78218 6.0817,9.4271 10.8093,10.75996 2.7818,0.78433 33.6048,1.99179 166.127,6.50791 89.4915,3.04973 166.3796,5.57859 170.8623,5.61977 5.7927,0.053 8.908,-0.19247 10.7689,-0.84897 z m -202.4758,-13.8258 c -4.8608,-2.46483 -6.9923,-5.76431 -7.3057,-11.30879 -0.3449,-6.1089 1.0831,-9.99055 5.1854,-14.09279 10.0273,-10.02735 25.7969,-4.29102 25.876,9.41267 0.039,7.11548 -2.9148,12.70077 -8.3798,15.83518 -2.7399,1.57135 -3.8868,1.8508 -7.6168,1.85574 -3.5673,0.005 -5.023,-0.31461 -7.7591,-1.70201 z m 12.2513,-8.31268 c 3.0522,-2.5331 3.7945,-9.03404 1.3145,-11.51391 -3.19,-3.19016 -8.3037,-2.06427 -11.045,2.43187 -1.556,2.55185 -1.6225,6.69147 -0.1369,8.52586 1.9372,2.39228 7.2918,2.69405 9.8676,0.55618 z m 195.4659,-41.05973 c 0.6182,-3.14268 8.5292,-183.329965 8.1402,-185.403317 -0.6349,-3.38537 -2.4298,-6.481947 -5.2154,-8.99864 -5.0218,-4.536808 9.3681,-4.203926 -173.9841,-4.024903 l -164.8621,0.161022 -2.5265,1.352376 c -3.3181,1.776027 -6.6717,5.551233 -7.9549,8.954614 -0.8703,2.308122 -1.6087,16.584519 -4.7308,91.506088 -2.0349,48.82422 -3.5977,88.87329 -3.4731,88.99792 0.1878,0.18732 331.6492,8.52182 348.9099,8.77322 5.1567,0.075 5.4356,0.0124 5.6968,-1.31834 z"
       id="path3192" />
    <g
       id="g4029"
       transform="matrix(0.72202491,0,0,0.72202491,-761.36996,-228.06103)">
      <path
         style="fill:#fedd56;stroke-width:0.264583"
         d="m -1979.6692,518.84677 c -8.6536,-1.26106 -14.6533,-4.50318 -16.8286,-9.09374 l -0.8227,-1.73613 -0.078,-12.6415 c -0.049,-8.00279 0.023,-13.19694 0.1986,-14.1552 0.7652,-4.18745 3.9888,-7.8369 8.0391,-9.10125 1.403,-0.43796 2.7154,-0.48311 14.2875,-0.49149 9.4567,-0.007 13.2555,-0.10075 14.7315,-0.36413 5.0198,-0.8957 9.4205,-4.61146 11.4196,-9.64223 0.545,-1.37155 0.6052,-2.05669 0.7363,-8.37295 l 0.1427,-6.87917 3.8364,-0.076 c 8.5347,-0.169 11.337,0.94145 14.1282,5.59851 1.5964,2.66365 3.1943,8.43482 3.8792,14.01125 0.3962,3.22503 0.1814,9.62308 -0.4134,12.31354 -1.5748,7.12416 -4.6133,12.70957 -7.8044,14.34625 -2.4687,1.26615 -3.756,1.33902 -22.4896,1.27299 l -17.3302,-0.0611 -0.079,1.49882 -0.079,1.49882 h 11.6549 11.6549 v 5.37682 c 0,4.30221 -0.088,5.63743 -0.438,6.68073 -1.144,3.40577 -4.0509,6.01645 -8.6868,7.80157 -5.9997,2.31025 -13.3352,3.13699 -19.6583,2.21554 z m 20.8525,-7.92303 c 2.6466,-1.3686 2.8145,-5.77005 0.2824,-7.40418 -2.0707,-1.33644 -4.1633,-1.07824 -5.6868,0.70169 -1.2224,1.42799 -1.4672,2.89639 -0.7495,4.49344 1.1556,2.57102 3.6927,3.48177 6.1539,2.20905 z"
         id="path3760" />
      <path
         style="fill:#4685b6;stroke-width:0.264583"
         d="m -1835.671,516.59825 c -0.096,-0.1552 -0.1029,-0.35364 -0.016,-0.44097 0.087,-0.0873 0.1588,-0.0286 0.1588,0.13049 0,0.15911 0.2084,0.34374 0.463,0.41028 0.4175,0.10909 0.419,0.12403 0.016,0.1517 -0.246,0.0169 -0.5258,-0.0963 -0.6218,-0.2515 z m 3.1248,-0.16575 c 0.2574,-0.0671 0.6146,-0.0627 0.7937,0.01 0.1792,0.0725 -0.031,0.12736 -0.468,0.12197 -0.4366,-0.005 -0.5831,-0.0647 -0.3257,-0.13177 z m 2.2605,-0.26197 c 0.191,-0.0764 0.4192,-0.067 0.5071,0.0209 0.088,0.0879 -0.068,0.15045 -0.3473,0.13896 -0.3082,-0.0127 -0.3709,-0.0754 -0.1598,-0.15985 z m -3.4396,-4.7625 c 0.191,-0.0764 0.4192,-0.067 0.5071,0.0209 0.088,0.0879 -0.068,0.15045 -0.3473,0.13896 -0.3082,-0.0127 -0.3709,-0.0754 -0.1598,-0.15985 z m 1.5875,-0.26458 c 0.191,-0.0764 0.4192,-0.067 0.5071,0.0209 0.088,0.0879 -0.068,0.15046 -0.3473,0.13897 -0.3082,-0.0127 -0.3709,-0.0754 -0.1598,-0.15985 z m 16.4537,-1.24207 c 0,-0.0549 0.2084,-0.2633 0.4631,-0.46302 0.4196,-0.32911 0.429,-0.31975 0.1,0.0999 -0.3457,0.44073 -0.563,0.58089 -0.563,0.36313 z m -2.6249,-8.7857 c 0.013,-0.30822 0.075,-0.37092 0.1599,-0.15985 0.076,0.19099 0.067,0.4192 -0.021,0.50712 -0.088,0.0879 -0.1505,-0.0684 -0.139,-0.34727 z m 7.1646,-0.90399 c 0,-0.3638 0.06,-0.51263 0.1335,-0.33073 0.073,0.1819 0.073,0.47956 0,0.66146 -0.073,0.1819 -0.1335,0.0331 -0.1335,-0.33073 z m 0.2646,-1.85208 c 0,-0.36381 0.06,-0.51263 0.1335,-0.33073 0.073,0.1819 0.073,0.47955 0,0.66145 -0.073,0.18191 -0.1335,0.0331 -0.1335,-0.33072 z m -6.8693,-1.19063 c 0.01,-0.43656 0.065,-0.58313 0.1317,-0.32569 0.067,0.25743 0.063,0.61462 -0.01,0.79375 -0.072,0.17913 -0.1273,-0.0315 -0.1219,-0.46806 z m 7.1339,-1.19062 c 0,-0.36381 0.06,-0.51263 0.1335,-0.33073 0.073,0.1819 0.073,0.47955 0,0.66145 -0.073,0.18191 -0.1335,0.0331 -0.1335,-0.33072 z m -194.1189,-2.31139 4.0964,-0.0833 0.079,-6.01258 0.079,-6.01258 -0.01,6.08542 -0.01,6.08542 -4.1675,0.0104 -4.1674,0.0104 4.0963,-0.0833 z m 127.3391,0.008 c 0.3291,-0.0633 0.8053,-0.0609 1.0583,0.005 0.253,0.0662 -0.016,0.118 -0.5984,0.11507 -0.5821,-0.003 -0.789,-0.0571 -0.4599,-0.12041 z m -133.3366,-0.25819 c 0.191,-0.0764 0.4192,-0.067 0.5071,0.0209 0.088,0.0879 -0.068,0.15045 -0.3472,0.13897 -0.3082,-0.0127 -0.3709,-0.0754 -0.1599,-0.15985 z m 130.7042,0 c 0.191,-0.0764 0.4192,-0.067 0.5071,0.0209 0.088,0.0879 -0.068,0.15045 -0.3473,0.13897 -0.3082,-0.0127 -0.3709,-0.0754 -0.1598,-0.15985 z m 45.2213,-0.0102 c 0.4697,-0.0584 1.3031,-0.0594 1.8521,-0.002 0.5489,0.0573 0.1646,0.10509 -0.854,0.10627 -1.0187,10e-4 -1.4678,-0.0457 -0.9981,-0.10414 z m 127.5351,0.0157 c 0.1819,-0.0734 0.4795,-0.0734 0.6614,0 0.1819,0.0734 0.033,0.13345 -0.3307,0.13345 -0.3638,0 -0.5126,-0.06 -0.3307,-0.13345 z m 4.779,-0.005 c 0.191,-0.0764 0.4192,-0.067 0.5071,0.0209 0.088,0.0879 -0.068,0.15045 -0.3472,0.13897 -0.3083,-0.0127 -0.371,-0.0754 -0.1599,-0.15985 z m -179.1229,-0.26459 c 0.191,-0.0764 0.4192,-0.067 0.5071,0.0209 0.088,0.0879 -0.068,0.15045 -0.3473,0.13896 -0.3082,-0.0127 -0.3709,-0.0754 -0.1598,-0.15985 z m 9.2604,0 c 0.191,-0.0764 0.4192,-0.067 0.5071,0.0209 0.088,0.0879 -0.068,0.15045 -0.3472,0.13896 -0.3083,-0.0127 -0.371,-0.0754 -0.1599,-0.15985 z m 34.925,0 c 0.191,-0.0764 0.4192,-0.067 0.5071,0.0209 0.088,0.0879 -0.068,0.15045 -0.3472,0.13896 -0.3083,-0.0127 -0.371,-0.0754 -0.1599,-0.15985 z m 7.5291,-0.003 c 0.2575,-0.0671 0.6146,-0.0627 0.7938,0.01 0.1791,0.0725 -0.031,0.12737 -0.4681,0.12197 -0.4365,-0.005 -0.5831,-0.0647 -0.3257,-0.13177 z m 44.45,0 c 0.2575,-0.0671 0.6146,-0.0627 0.7938,0.01 0.1791,0.0725 -0.031,0.12737 -0.4681,0.12197 -0.4365,-0.005 -0.5831,-0.0647 -0.3257,-0.13177 z m 76.3438,0.003 c 0.191,-0.0764 0.4192,-0.067 0.5072,0.0209 0.088,0.0879 -0.068,0.15045 -0.3473,0.13896 -0.3083,-0.0127 -0.3709,-0.0754 -0.1599,-0.15985 z m 8.4502,0.006 c 0.1819,-0.0734 0.4795,-0.0734 0.6614,0 0.1819,0.0734 0.033,0.13345 -0.3307,0.13345 -0.3638,0 -0.5126,-0.0601 -0.3307,-0.13345 z m -68.1182,-0.55083 c 1.1345,-0.0497 2.9204,-0.0494 3.9688,8e-4 1.0484,0.0501 0.1202,0.0908 -2.0626,0.0904 -2.1828,-2.7e-4 -3.0406,-0.0413 -1.9062,-0.0911 z m 28.0891,-0.13383 c -0.07,-0.1819 -0.095,-7.29589 -0.056,-15.80886 l 0.071,-15.47812 0.064,15.66929 0.064,15.6693 3.7703,0.0813 3.7703,0.0813 -3.7786,0.0583 c -2.8232,0.0435 -3.8106,-0.0254 -3.9051,-0.27245 z m 68.3395,0.13672 3.7703,-0.0851 v -19.40721 c 0,-18.16834 0.029,-19.4304 0.463,-19.77034 0.4098,-0.32143 0.4252,-0.31468 0.134,0.0588 -0.254,0.32575 -0.3444,4.84852 -0.3969,19.84376 l -0.068,19.42184 -3.8365,0.0117 -3.8364,0.0117 3.7703,-0.0851 z m 27.9256,-0.003 c 1.1344,-0.0497 2.9204,-0.0494 3.9688,7.9e-4 1.0483,0.0501 0.1202,0.0908 -2.0627,0.0904 -2.1828,-2.7e-4 -3.0405,-0.0414 -1.9061,-0.0911 z m -165.883,-1.91978 c 0,-1.09141 0.047,-1.53789 0.1038,-0.99219 0.057,0.5457 0.057,1.43867 0,1.98438 -0.057,0.5457 -0.1038,0.0992 -0.1038,-0.99219 z m -204.6487,1.04263 -0.6247,-0.54487 0.7276,0.44301 c 0.4002,0.24365 0.7276,0.48884 0.7276,0.54487 0,0.20659 -0.221,0.0887 -0.8305,-0.44301 z m -1.9487,-1.63794 c -0.8439,-0.97998 -1.9374,-2.62996 -1.2712,-1.91823 0.71,0.75854 2.4936,3.04271 2.3759,3.04271 -0.075,0 -0.5721,-0.50602 -1.1047,-1.12448 z m 152.5224,-1.32292 c 0.6487,-0.69122 1.2143,-1.25677 1.2567,-1.25677 0.1987,0 -0.011,0.23755 -1.1795,1.33397 l -1.2568,1.17957 z m 146.821,0.39687 c -0.3291,-0.41964 -0.3197,-0.429 0.1,-0.0999 0.4407,0.34564 0.5809,0.56292 0.3631,0.56292 -0.055,0 -0.2633,-0.20836 -0.463,-0.46303 z m 25.4338,0.36313 c 0,-0.0549 0.2083,-0.2633 0.463,-0.46302 0.4196,-0.32911 0.429,-0.31975 0.1,0.0999 -0.3457,0.44073 -0.5629,0.58089 -0.5629,0.36313 z m -89.2277,-0.35182 c 0.3291,-0.0633 0.8054,-0.0609 1.0584,0.005 0.2529,0.0662 -0.016,0.118 -0.5984,0.11506 -0.5821,-0.003 -0.7891,-0.0571 -0.46,-0.1204 z m 78.0656,-0.52277 c 0.191,-0.0764 0.4192,-0.067 0.5071,0.0209 0.088,0.0879 -0.068,0.15045 -0.3473,0.13897 -0.3082,-0.0127 -0.3709,-0.0754 -0.1598,-0.15985 z m -177.4147,-0.53179 c 0.2575,-0.0671 0.6146,-0.0627 0.7938,0.01 0.1791,0.0725 -0.031,0.12736 -0.4681,0.12197 -0.4365,-0.005 -0.5831,-0.0647 -0.3257,-0.13177 z m 3.3023,0.008 c 0.1819,-0.0734 0.4795,-0.0734 0.6614,0 0.1819,0.0734 0.033,0.13345 -0.3307,0.13345 -0.3638,0 -0.5126,-0.06 -0.3307,-0.13345 z m 45.6456,-0.008 c 0.2575,-0.0671 0.6147,-0.0627 0.7938,0.01 0.1791,0.0725 -0.032,0.12736 -0.4681,0.12197 -0.4365,-0.005 -0.5831,-0.0647 -0.3257,-0.13177 z m 3.175,0 c 0.2575,-0.0671 0.6147,-0.0627 0.7938,0.01 0.1791,0.0725 -0.032,0.12736 -0.4681,0.12197 -0.4365,-0.005 -0.5831,-0.0647 -0.3257,-0.13177 z m -190.6707,-1.54666 c -0.2554,-0.66535 -0.18,-0.83702 0.1319,-0.30066 0.1544,0.26558 0.225,0.5386 0.1569,0.60673 -0.068,0.0681 -0.1981,-0.0696 -0.2888,-0.30607 z m 306.8673,-0.98196 -0.7771,-0.8599 0.8599,0.77711 c 0.8015,0.72437 0.9815,0.94269 0.7771,0.94269 -0.045,0 -0.4325,-0.38696 -0.8599,-0.8599 z m -307.5157,-0.60055 c -0.1671,-0.36669 -0.5923,-1.8252 -0.9449,-3.24115 -2.0789,-8.34894 -2.1117,-14.93594 -0.1141,-22.94736 1.3253,-5.31537 3.6654,-8.58233 7.68,-10.72211 3.1797,-1.69478 2.8564,-1.66847 21.8293,-1.77595 l 17.2513,-0.0977 0.095,-1.50732 0.095,-1.50732 0.05,1.65365 0.05,1.65364 h -5.9316 -5.9316 l -0.7877,0.8599 c -0.8318,0.90802 -4.6288,5.40565 -8.7114,10.31871 -1.3445,1.61803 -2.5439,3.00922 -2.6654,3.09153 -0.1214,0.0823 -1.4506,1.63793 -2.9537,3.45694 -1.5031,1.81902 -2.8713,3.42636 -3.0403,3.57188 -0.1691,0.14552 -1.5927,1.8124 -3.1636,3.70417 -1.5709,1.89177 -2.9972,3.55864 -3.1697,3.70416 -0.1725,0.14552 -1.4393,1.63178 -2.8152,3.30279 -1.3759,1.67102 -2.6803,3.22112 -2.8985,3.44467 -0.2183,0.22355 -1.0398,1.14831 -1.8257,2.05502 -0.7858,0.90671 -1.5108,1.64857 -1.6111,1.64857 -0.1004,0 -0.3192,-0.30002 -0.4862,-0.6667 z m 223.8126,-0.28139 c 0.013,-0.30823 0.075,-0.37092 0.1599,-0.15986 0.076,0.191 0.067,0.4192 -0.021,0.50712 -0.088,0.0879 -0.1505,-0.0683 -0.139,-0.34726 z m -21.8559,-19.55712 c 10e-5,-10.4775 0.033,-14.72523 0.073,-9.43939 0.04,5.28583 0.04,13.85833 -10e-5,19.05 -0.04,5.19166 -0.073,0.86689 -0.073,-9.61061 z m 21.6318,17.59479 c 0,-0.50932 0.054,-0.71768 0.121,-0.46302 0.067,0.25466 0.067,0.67138 0,0.92604 -0.067,0.25466 -0.121,0.0463 -0.121,-0.46302 z m 7.6324,0.37483 c 0.013,-0.30823 0.075,-0.37092 0.1599,-0.15986 0.076,0.191 0.067,0.4192 -0.021,0.50712 -0.088,0.0879 -0.1505,-0.0684 -0.139,-0.34726 z m -60.325,-0.52917 c 0.013,-0.30823 0.075,-0.37092 0.1599,-0.15985 0.076,0.19099 0.067,0.4192 -0.021,0.50711 -0.088,0.0879 -0.1504,-0.0683 -0.139,-0.34726 z m -151.3416,-2.11667 c 0.013,-0.30822 0.075,-0.37092 0.1598,-0.15985 0.076,0.19099 0.067,0.4192 -0.021,0.50712 -0.088,0.0879 -0.1504,-0.0684 -0.1389,-0.34727 z m 151.1807,-16.11753 c 0,-9.16782 0.033,-12.87992 0.074,-8.24911 0.041,4.6308 0.041,12.13174 -10e-5,16.66875 -0.041,4.53701 -0.074,0.74817 -0.074,-8.41964 z m -9.6286,14.26545 c 0.013,-0.30823 0.075,-0.37092 0.1598,-0.15985 0.076,0.19099 0.067,0.4192 -0.021,0.50711 -0.088,0.0879 -0.1504,-0.0683 -0.1389,-0.34726 z m 17.1769,-16.6997 c -0.073,-9.34248 -0.042,-16.8961 0.068,-16.78582 0.1103,0.11028 0.1698,7.75413 0.1322,16.98633 l -0.068,16.78582 z m 149.2669,14.47279 c 0,-0.3638 0.06,-0.51263 0.1334,-0.33073 0.073,0.1819 0.073,0.47956 0,0.66146 -0.073,0.1819 -0.1334,0.0331 -0.1334,-0.33073 z m 8.1811,-0.15434 c 0.013,-0.30823 0.075,-0.37092 0.1599,-0.15985 0.076,0.19099 0.067,0.4192 -0.021,0.50711 -0.088,0.0879 -0.1505,-0.0684 -0.139,-0.34726 z m -182.8061,-0.63941 c 0,-0.3638 0.06,-0.51263 0.1334,-0.33073 0.073,0.1819 0.073,0.47956 0,0.66146 -0.073,0.1819 -0.1334,0.0331 -0.1334,-0.33073 z m 141.7957,-0.15434 c 0.013,-0.30823 0.075,-0.37092 0.1599,-0.15985 0.076,0.19099 0.067,0.4192 -0.021,0.50711 -0.088,0.0879 -0.1505,-0.0684 -0.139,-0.34726 z m 8.223,-0.11025 c 0,-0.3638 0.06,-0.51263 0.1335,-0.33072 0.073,0.1819 0.073,0.47955 0,0.66145 -0.073,0.18191 -0.1335,0.0331 -0.1335,-0.33073 z m 24.8499,-0.94808 c 0.013,-0.30823 0.075,-0.37092 0.1599,-0.15986 0.076,0.191 0.067,0.4192 -0.021,0.50712 -0.088,0.0879 -0.1505,-0.0684 -0.139,-0.34726 z m -304.1594,-1.43317 c 0.7167,-0.7276 1.3626,-1.32291 1.4353,-1.32291 0.073,0 -0.454,0.59531 -1.1707,1.32291 -0.7167,0.72761 -1.3625,1.32292 -1.4353,1.32292 -0.073,0 0.4541,-0.59531 1.1707,-1.32292 z m 279.024,0.37483 c 0.013,-0.30822 0.075,-0.37092 0.1599,-0.15985 0.076,0.19099 0.067,0.4192 -0.021,0.50712 -0.088,0.0879 -0.1505,-0.0684 -0.139,-0.34727 z m 33.6021,0 c 0.013,-0.30822 0.075,-0.37092 0.1599,-0.15985 0.076,0.19099 0.067,0.4192 -0.021,0.50712 -0.088,0.0879 -0.1505,-0.0684 -0.139,-0.34727 z m -183.061,-0.7717 c 0.01,-0.43656 0.065,-0.58313 0.1318,-0.32569 0.067,0.25743 0.063,0.61461 -0.01,0.79375 -0.072,0.17913 -0.1274,-0.0315 -0.122,-0.46806 z m 141.0132,-0.66146 c 0,-0.3638 0.06,-0.51263 0.1334,-0.33073 0.073,0.1819 0.073,0.47956 0,0.66146 -0.073,0.1819 -0.1334,0.0331 -0.1334,-0.33073 z m 33.8764,-0.13229 c 0.01,-0.43656 0.065,-0.58313 0.1318,-0.32569 0.067,0.25743 0.063,0.61461 -0.01,0.79375 -0.072,0.17913 -0.1273,-0.0315 -0.122,-0.46806 z m -302.7349,-0.23219 c 0,-0.0549 0.2084,-0.2633 0.463,-0.46302 0.4197,-0.32911 0.429,-0.31975 0.1,0.0999 -0.3456,0.44073 -0.5629,0.58088 -0.5629,0.36312 z m 136.8716,-1.35531 c 0,-0.87313 0.051,-1.19841 0.1098,-0.72287 0.059,0.47555 0.058,1.18993 0,1.5875 -0.06,0.39758 -0.1086,0.008 -0.1071,-0.86463 z m 174.33,0.52917 c 0.01,-0.43657 0.065,-0.58313 0.1318,-0.3257 0.067,0.25743 0.063,0.61462 -0.01,0.79375 -0.072,0.17913 -0.1274,-0.0315 -0.122,-0.46805 z m -34.0862,-2.11667 c 0,-1.45521 0.045,-2.01677 0.099,-1.2479 0.054,0.76886 0.053,1.95949 0,2.64583 -0.054,0.68635 -0.098,0.0573 -0.098,-1.39793 z m -271.6087,0.21614 c 0.191,-0.0764 0.4192,-0.067 0.5071,0.0209 0.088,0.0879 -0.068,0.15045 -0.3473,0.13897 -0.3082,-0.0127 -0.3709,-0.0754 -0.1598,-0.15986 z m 1.8386,-0.27098 c 0.3291,-0.0633 0.8054,-0.0609 1.0583,0.005 0.253,0.0662 -0.016,0.118 -0.5984,0.11506 -0.5821,-0.003 -0.789,-0.0571 -0.4599,-0.1204 z m 18.3854,-0.01 c 1.2734,-0.0485 3.3569,-0.0485 4.6303,0 1.2733,0.0485 0.2315,0.0882 -2.3152,0.0882 -2.5466,0 -3.5884,-0.0397 -2.3151,-0.0882 z m 102.1146,-2.05196 c 0.01,-0.43656 0.065,-0.58312 0.1318,-0.32569 0.067,0.25743 0.063,0.61462 -0.01,0.79375 -0.072,0.17913 -0.1274,-0.0315 -0.122,-0.46806 z m 183.3563,0 c 0.01,-0.43656 0.065,-0.58312 0.1318,-0.32569 0.067,0.25743 0.063,0.61462 -0.01,0.79375 -0.072,0.17913 -0.1274,-0.0315 -0.122,-0.46806 z m -8.4667,-0.52916 c 0.01,-0.43657 0.065,-0.58313 0.1318,-0.3257 0.067,0.25743 0.063,0.61462 -0.01,0.79375 -0.072,0.17913 -0.1273,-0.0315 -0.122,-0.46805 z m -263.8411,0.29698 c 0,-0.0549 0.2083,-0.2633 0.463,-0.46303 0.4196,-0.3291 0.429,-0.31974 0.1,0.0999 -0.3457,0.44073 -0.5629,0.58089 -0.5629,0.36313 z m 229.9647,-0.69386 c 0,-0.3638 0.06,-0.51263 0.1334,-0.33073 0.073,0.1819 0.073,0.47956 0,0.66146 -0.073,0.1819 -0.1334,0.0331 -0.1334,-0.33073 z m -132.3126,-0.15434 c 0.013,-0.30822 0.075,-0.37092 0.1599,-0.15985 0.076,0.19099 0.067,0.4192 -0.021,0.50712 -0.088,0.0879 -0.1505,-0.0684 -0.139,-0.34727 z m -95.6678,-1.16858 c 0.2634,-0.29104 0.5385,-0.52916 0.6112,-0.52916 0.073,0 -0.083,0.23812 -0.3466,0.52916 -0.2634,0.29105 -0.5384,0.52917 -0.6112,0.52917 -0.073,0 0.083,-0.23812 0.3466,-0.52917 z m 236.4261,-0.41892 c 0.013,-0.30822 0.075,-0.37092 0.1599,-0.15985 0.076,0.19099 0.067,0.4192 -0.021,0.50712 -0.088,0.0879 -0.1505,-0.0684 -0.139,-0.34727 z m -149.7234,-0.50712 c 0.01,-0.43656 0.065,-0.58312 0.1317,-0.32569 0.067,0.25743 0.063,0.61462 -0.01,0.79375 -0.072,0.17913 -0.1273,-0.0315 -0.1219,-0.46806 z m 8.4359,-1.08038 c 0.013,-0.30822 0.075,-0.37092 0.1599,-0.15985 0.076,0.19099 0.067,0.4192 -0.021,0.50712 -0.088,0.0879 -0.1504,-0.0684 -0.139,-0.34727 z m 133.35,0 c 0.013,-0.30822 0.075,-0.37092 0.1599,-0.15985 0.076,0.19099 0.067,0.4192 -0.021,0.50712 -0.088,0.0879 -0.1505,-0.0684 -0.139,-0.34727 z m 32.8084,0 c 0.013,-0.30822 0.075,-0.37092 0.1598,-0.15985 0.077,0.19099 0.067,0.4192 -0.021,0.50712 -0.088,0.0879 -0.1505,-0.0684 -0.139,-0.34727 z m -24.6063,-0.26458 c 0.013,-0.30823 0.075,-0.37092 0.1599,-0.15985 0.076,0.19099 0.067,0.4192 -0.021,0.50711 -0.088,0.0879 -0.1505,-0.0684 -0.139,-0.34726 z m -141.8166,-1.05833 c 0.013,-0.30823 0.075,-0.37092 0.1598,-0.15986 0.076,0.191 0.067,0.4192 -0.021,0.50712 -0.088,0.0879 -0.1504,-0.0683 -0.1389,-0.34726 z m 212.2265,-1.03629 c 0.01,-0.43656 0.065,-0.58313 0.1318,-0.32569 0.067,0.25743 0.063,0.61461 -0.01,0.79375 -0.072,0.17913 -0.1274,-0.0315 -0.122,-0.46806 z m -94.487,-0.28663 c 0.013,-0.30823 0.075,-0.37092 0.1599,-0.15985 0.076,0.19099 0.067,0.4192 -0.021,0.50711 -0.088,0.0879 -0.1505,-0.0684 -0.139,-0.34726 z m 7.9682,-0.50712 c 0.01,-0.43656 0.065,-0.58313 0.1318,-0.32569 0.067,0.25743 0.063,0.61461 -0.01,0.79375 -0.072,0.17913 -0.1273,-0.0315 -0.122,-0.46806 z m -218.0473,-0.28663 c 0.013,-0.30823 0.075,-0.37092 0.1598,-0.15985 0.077,0.19099 0.067,0.4192 -0.021,0.50711 -0.088,0.0879 -0.1504,-0.0683 -0.1389,-0.34726 z m 312.2083,-3.175 c 0.013,-0.30823 0.075,-0.37092 0.1599,-0.15985 0.076,0.19099 0.067,0.4192 -0.021,0.50711 -0.088,0.0879 -0.1505,-0.0684 -0.139,-0.34726 z m -105.0805,-2.16077 -0.6414,-0.7276 0.7276,0.64143 c 0.4002,0.35279 0.7276,0.68021 0.7276,0.72761 0,0.2075 -0.2143,0.0386 -0.8138,-0.64144 z m 94.7071,-0.26458 c -0.3291,-0.41964 -0.3197,-0.429 0.1,-0.0999 0.4407,0.34565 0.5809,0.56292 0.3631,0.56292 -0.055,0 -0.2633,-0.20836 -0.463,-0.46302 z m -247.7485,-1.12448 c 0.5684,-0.58208 1.0929,-1.05833 1.1657,-1.05833 0.073,0 -0.3328,0.47625 -0.9011,1.05833 -0.5684,0.58208 -1.093,1.05833 -1.1658,1.05833 -0.073,0 0.3328,-0.47625 0.9012,-1.05833 z m 184.8114,0.95844 c 0,-0.0549 0.2084,-0.2633 0.4631,-0.46302 0.4196,-0.32911 0.4289,-0.31975 0.1,0.0999 -0.3457,0.44073 -0.563,0.58089 -0.563,0.36313 z m 14.5184,-0.36313 c -0.3291,-0.41964 -0.3198,-0.429 0.1,-0.0999 0.4407,0.34564 0.5809,0.56291 0.3631,0.56291 -0.055,0 -0.2633,-0.20835 -0.463,-0.46302 z m 8.8721,-0.39687 -0.504,-0.59531 0.5953,0.50402 c 0.5594,0.47367 0.7158,0.6866 0.504,0.6866 -0.05,0 -0.3181,-0.26789 -0.5953,-0.59531 z m -30.0161,-1.5875 c 1.0964,-1.16819 1.334,-1.37824 1.334,-1.17957 0,0.0425 -0.5656,0.60801 -1.2568,1.25677 l -1.2568,1.17957 z m -31.5358,0.40356 c 0.4756,-0.0589 1.19,-0.0577 1.5875,0.003 0.3976,0.0604 0.01,0.10855 -0.8646,0.10706 -0.8731,-0.002 -1.1984,-0.0509 -0.7229,-0.10976 z m -113.4786,-0.53585 c -0.3291,-0.41965 -0.3197,-0.42901 0.1,-0.0999 0.4408,0.34564 0.5809,0.56292 0.3632,0.56292 -0.055,0 -0.2633,-0.20836 -0.4631,-0.46302 z m 126.4904,-1.05834 -0.9118,-0.99218 0.9922,0.9118 c 0.9235,0.84868 1.1138,1.07257 0.9118,1.07257 -0.044,0 -0.4907,-0.44648 -0.9922,-0.99219 z m 31.45,0.81145 c 0.191,-0.0764 0.4192,-0.067 0.5072,0.0209 0.088,0.0879 -0.068,0.15045 -0.3473,0.13896 -0.3083,-0.0127 -0.3709,-0.0754 -0.1599,-0.15985 z m 2.1167,0 c 0.191,-0.0764 0.4192,-0.067 0.5071,0.0209 0.088,0.0879 -0.068,0.15045 -0.3472,0.13896 -0.3083,-0.0127 -0.371,-0.0754 -0.1599,-0.15985 z m -175.1707,-0.27057 c 0.3274,-0.0631 0.8632,-0.0631 1.1906,0 0.3274,0.0631 0.059,0.11467 -0.5953,0.11467 -0.6548,0 -0.9227,-0.0516 -0.5953,-0.11467 z m 220.2656,-0.006 c 0.5457,-0.0571 1.4387,-0.0571 1.9844,0 0.5457,0.0571 0.099,0.10378 -0.9922,0.10378 -1.0914,0 -1.5379,-0.0467 -0.9922,-0.10378 z m -32.9082,-0.53488 c -0.3291,-0.41964 -0.3198,-0.429 0.1,-0.0999 0.4407,0.34564 0.5809,0.56291 0.3631,0.56291 -0.055,0 -0.2633,-0.20835 -0.463,-0.46302 z m -174.3604,-1.05833 c -0.3291,-0.41964 -0.3198,-0.429 0.1,-0.0999 0.4407,0.34565 0.5808,0.56292 0.3631,0.56292 -0.055,0 -0.2633,-0.20836 -0.463,-0.46302 z m 222.7791,0 c -0.3291,-0.41964 -0.3197,-0.429 0.1,-0.0999 0.4407,0.34565 0.5809,0.56292 0.3631,0.56292 -0.055,0 -0.2632,-0.20836 -0.463,-0.46302 z m -107.4532,-2.35804 c 0.1819,-0.0734 0.4796,-0.0734 0.6615,0 0.1819,0.0734 0.033,0.13345 -0.3308,0.13345 -0.3638,0 -0.5126,-0.06 -0.3307,-0.13345 z m -133.598,-0.2701 c 0.191,-0.0764 0.4192,-0.067 0.5071,0.0209 0.088,0.0879 -0.068,0.15045 -0.3473,0.13897 -0.3082,-0.0127 -0.3709,-0.0754 -0.1598,-0.15986 z m 137.1749,-0.003 c 0.2574,-0.0671 0.6146,-0.0627 0.7938,0.01 0.1791,0.0725 -0.032,0.12736 -0.4681,0.12197 -0.4366,-0.005 -0.5831,-0.0647 -0.3257,-0.13178 z m -133.9999,-0.52655 c 0.191,-0.0764 0.4192,-0.067 0.5071,0.0209 0.088,0.0879 -0.068,0.15045 -0.3473,0.13897 -0.3082,-0.0127 -0.3709,-0.0754 -0.1598,-0.15985 z m 7.6729,0 c 0.191,-0.0764 0.4192,-0.067 0.5071,0.0209 0.088,0.0879 -0.068,0.15045 -0.3473,0.13897 -0.3082,-0.0127 -0.3709,-0.0754 -0.1598,-0.15985 z m -4.6431,-0.27371 c 0.4021,-0.0608 0.9975,-0.0592 1.3229,0.004 0.3254,0.0628 0,0.11256 -0.7313,0.11058 -0.7276,-0.002 -0.9938,-0.0534 -0.5916,-0.11419 z m 172.3724,-0.004 c 0.6184,-0.0557 1.6305,-0.0557 2.2489,0 0.6185,0.0557 0.1125,0.10128 -1.1245,0.10128 -1.2369,0 -1.7429,-0.0456 -1.1244,-0.10128 z m 50.0062,0 c 0.6185,-0.0557 1.6305,-0.0557 2.249,0 0.6184,0.0557 0.1124,0.10128 -1.1245,0.10128 -1.2369,0 -1.7429,-0.0456 -1.1245,-0.10128 z m -341.7755,-7.16599 c 0,-5.97137 0.2425,-7.97299 1.1907,-9.82753 2.2222,-4.34658 9.1295,-6.43306 21.4312,-6.4737 5.7781,-0.0191 10.9947,0.29496 10.1352,0.61017 -0.2464,0.0904 -1.3016,1.17638 -2.3447,2.4133 -1.0431,1.23693 -1.9819,2.30849 -2.0861,2.38125 -0.1043,0.0728 -1.057,1.20386 -2.117,2.51355 -1.0601,1.30968 -2.4254,2.91703 -3.034,3.57187 -0.6087,0.65484 -2.2289,2.55984 -3.6005,4.23333 -1.3716,1.67349 -2.6317,3.12983 -2.8001,3.2363 -0.1684,0.10647 -0.7619,0.79108 -1.3188,1.52135 l -1.0126,1.32777 h -7.2216 -7.2217 z m 11.3888,-0.57664 c 1.0639,-0.29555 2.4648,-1.62258 2.8825,-2.73032 0.6749,-1.79015 -0.075,-4.07662 -1.6969,-5.17433 -3.7626,-2.54651 -8.4129,1.83642 -6.1744,5.81935 1.0571,1.88069 2.9209,2.65978 4.9888,2.0853 z m 362.5264,-2.18393 0.059,-4.29948 0.08,4.14966 c 0.078,4.04951 0.094,4.1524 0.6687,4.26344 0.4966,0.096 0.4749,0.11943 -0.1389,0.14983 l -0.7277,0.036 z m 5.9603,4.12425 c 0.1819,-0.0734 0.4796,-0.0734 0.6615,0 0.1819,0.0734 0.033,0.13346 -0.3308,0.13346 -0.3638,0 -0.5126,-0.0601 -0.3307,-0.13346 z m 3.8415,-0.008 c 0.2574,-0.0671 0.6146,-0.0627 0.7938,0.01 0.1791,0.0725 -0.032,0.12736 -0.4681,0.12197 -0.4366,-0.005 -0.5831,-0.0647 -0.3257,-0.13178 z m 4.096,0.01 c 0.5896,-0.12666 0.5953,-0.17198 0.5953,-4.72293 v -4.59504 l -0.7276,-0.10758 c -0.6865,-0.10149 -0.6827,-0.10618 0.066,-0.0829 l 0.7937,0.0247 v 4.7625 4.7625 l -0.6614,0.0433 c -0.5829,0.0382 -0.5908,0.0281 -0.066,-0.0846 z m -15.0812,-9.54795 c 1.055,-0.0502 2.7814,-0.0502 3.8364,0 1.0551,0.0502 0.1919,0.0913 -1.9182,0.0913 -2.1101,0 -2.9733,-0.0411 -1.9182,-0.0913 z m 7.4114,0.009 c 0.3291,-0.0633 0.8054,-0.0609 1.0583,0.005 0.253,0.0662 -0.016,0.11801 -0.5984,0.11507 -0.5821,-0.003 -0.789,-0.0571 -0.4599,-0.12041 z m -337.0361,-3.18632 -0.6415,-0.7276 0.7276,0.64143 c 0.6801,0.59952 0.849,0.81378 0.6415,0.81378 -0.047,0 -0.3749,-0.32742 -0.7276,-0.72761 z m -1.98,-1.53595 c -0.4932,-0.39512 -0.4899,-0.40001 0.082,-0.12298 0.3274,0.15867 0.5953,0.34383 0.5953,0.41147 0,0.20246 -0.1372,0.144 -0.6771,-0.28849 z m -2.2334,-1.17603 c -0.2182,-0.14106 -0.2778,-0.25648 -0.1322,-0.25648 0.1455,0 0.4431,0.11542 0.6614,0.25648 0.2183,0.14107 0.2778,0.25648 0.1323,0.25648 -0.1455,0 -0.4432,-0.11541 -0.6615,-0.25648 z m -2.4308,-0.97449 c 0.191,-0.0764 0.4192,-0.067 0.5071,0.0209 0.088,0.0879 -0.068,0.15045 -0.3473,0.13896 -0.3082,-0.0127 -0.3709,-0.0754 -0.1598,-0.15985 z m -1.0583,-0.26458 c 0.191,-0.0764 0.4192,-0.067 0.5071,0.0209 0.088,0.0879 -0.068,0.15045 -0.3473,0.13896 -0.3082,-0.0127 -0.3709,-0.0754 -0.1598,-0.15985 z m -1.323,-0.26458 c 0.191,-0.0764 0.4192,-0.067 0.5072,0.0209 0.088,0.0879 -0.068,0.15046 -0.3473,0.13897 -0.3082,-0.0127 -0.3709,-0.0754 -0.1599,-0.15985 z"
         id="path3758" />
      <path
         style="fill:#3874a4;stroke-width:0.264583"
         d="m -1894.1992,515.47991 -3.7703,-1.34443 v -30.4527 -30.45271 l 1.3891,-1.33953 c 1.7057,-1.64487 2.4701,-2.17292 4.9409,-3.41291 4.6671,-2.34223 9.9816,-3.43712 15.6304,-3.22013 4.7772,0.18351 6.9368,0.86527 9.952,3.14175 1.6725,1.2628 3.4629,3.51008 4.8601,6.10032 2.2459,4.16378 3.1954,8.25001 3.3768,14.53331 0.1111,3.8436 0.051,4.79166 -0.4694,7.40834 -1.0969,5.51609 -2.8085,8.90269 -6.215,12.29719 -3.376,3.36409 -7.1088,4.8587 -12.1346,4.8587 -3.8582,0 -7.0672,-0.81602 -11.0724,-2.81559 -1.2704,-0.63424 -2.3706,-1.15316 -2.445,-1.15316 -0.074,0 -0.166,6.11909 -0.2037,13.59799 l -0.068,13.59799 z m 20.3263,-28.17827 c 2.0232,-0.96642 4.078,-2.98607 5.1101,-5.02277 0.377,-0.74394 1.004,-2.52004 1.3933,-3.94688 0.672,-2.46287 0.7084,-2.90917 0.7172,-8.81197 0.01,-5.8576 -0.031,-6.38031 -0.691,-9.0253 -0.9546,-3.82682 -1.8399,-5.60121 -3.7593,-7.53431 -2.1223,-2.13751 -3.8366,-2.81824 -7.1554,-2.8413 -3.6044,-0.0251 -8.2638,1.23611 -11.1445,3.0165 l -0.8941,0.55257 v 15.26928 15.26928 l 1.6537,0.95801 c 3.9901,2.31157 6.8512,3.14721 10.3849,3.03311 2.3206,-0.0749 2.8596,-0.18755 4.3851,-0.91622 z m 38.243,28.90071 c -0.1865,-0.48618 -0.9562,-3.75671 -0.9562,-4.06326 0,-0.11582 1.0994,-0.36083 2.4432,-0.54446 8.2244,-1.12393 13.1853,-3.67894 15.1317,-7.79341 0.9045,-1.91187 1.4751,-5.92044 1.4751,-10.36297 0,-3.33022 -0.035,-3.58684 -0.4631,-3.4019 -4.5591,1.96953 -9.1006,3.01203 -13.9567,3.20375 -4.825,0.1905 -6.3723,-0.0644 -9.352,-1.54046 -3.8108,-1.88775 -6.6202,-5.19439 -7.4432,-8.76042 -0.1524,-0.66068 -0.2602,-8.08958 -0.264,-18.20663 l -0.01,-17.09055 3.3433,-1.12166 c 1.8388,-0.6169 3.5008,-1.18211 3.6934,-1.25601 0.2877,-0.11042 0.3659,2.97046 0.4386,17.28616 0.079,15.52645 0.1372,17.56024 0.5358,18.70545 1.6445,4.72449 6.1472,7.31842 12.0973,6.969 3.3093,-0.19434 7.6104,-1.71649 10.3849,-3.67524 l 0.7276,-0.51367 v -18.89969 -18.89969 h 3.8627 3.8628 l -0.1187,24.14323 c -0.1025,20.83476 -0.1807,24.59644 -0.5703,27.45052 -0.8891,6.51281 -1.8698,8.9382 -4.7608,11.77396 -3.4915,3.42476 -9.409,5.91069 -16.0271,6.73291 -3.0913,0.38405 -3.8887,0.35766 -4.0778,-0.13496 z m -175.8458,-23.02941 c -2.9796,-0.7972 -5.9956,-3.37952 -7.3783,-6.31741 l -0.4993,-1.0609 1.2645,-1.45658 c 0.6956,-0.80111 1.5453,-1.75835 1.8883,-2.1272 0.3431,-0.36884 1.7495,-2.03571 3.1254,-3.70416 1.3759,-1.66845 2.6427,-3.15261 2.8152,-3.29813 0.1725,-0.14552 1.5988,-1.81239 3.1697,-3.70416 1.5709,-1.89177 2.9945,-3.55865 3.1636,-3.70417 0.169,-0.14552 1.5372,-1.75286 3.0403,-3.57188 1.5031,-1.81901 2.8323,-3.37463 2.9537,-3.45694 0.1215,-0.0823 1.3209,-1.4735 2.6654,-3.09153 4.0826,-4.91306 7.8796,-9.41069 8.7114,-10.31871 l 0.7877,-0.8599 h 5.9316 5.9316 v -1.5875 -1.5875 h -4.5072 c -5.1192,0 -4.9713,0.10811 -2.8968,-2.11667 0.6106,-0.65484 2.1935,-2.50031 3.5175,-4.10104 1.324,-1.60073 2.9052,-3.4462 3.5139,-4.10104 0.6086,-0.65484 1.9311,-2.20266 2.9389,-3.43958 1.0078,-1.23693 2.2198,-2.66568 2.6933,-3.175 0.4735,-0.50933 1.4691,-1.67018 2.2125,-2.57969 0.872,-1.06685 1.5464,-1.65299 1.9007,-1.65179 1.0351,0.003 4.8868,1.04174 6.1576,1.65985 3.8099,1.85301 5.7354,3.94162 6.9367,7.52422 0.5282,1.57537 0.5517,2.17745 0.5517,14.16577 0,13.6147 -0.057,14.24854 -1.5143,16.92653 -0.8865,1.62878 -2.9585,3.74862 -4.3658,4.46657 -2.8638,1.46103 -2.1913,1.40186 -17.6679,1.5543 l -14.4197,0.14204 -1.7939,0.71536 c -4.4909,1.79087 -7.3683,4.75673 -9.1511,9.4327 -0.6354,1.66641 -0.6729,2.06933 -0.7721,8.29987 l -0.1043,6.54844 -4.6726,-0.0174 c -3.228,-0.012 -5.1226,-0.1378 -6.1279,-0.40676 z m 303.0802,0.0336 c -6.2314,-0.99569 -11.2093,-4.817 -14.3016,-10.97858 -2.1292,-4.24253 -2.8661,-7.71735 -2.8635,-13.50169 0,-3.24856 0.1198,-4.6106 0.569,-6.55241 1.8995,-8.21138 7.8891,-14.71427 15.1577,-16.4567 4.596,-1.10177 10.3831,-0.56656 14.4011,1.33186 4.4824,2.11782 8.6125,6.79059 10.5353,11.91957 2.078,5.5428 2.1341,13.29133 0.1415,19.54726 -0.3013,0.94589 -1.0693,2.71382 -1.7067,3.92874 -3.2526,6.19913 -8.089,9.78764 -14.5245,10.77696 -2.8563,0.43909 -4.5884,0.43558 -7.4083,-0.015 z m 6.9682,-4.77499 c 5.3609,-1.26381 8.4367,-5.7785 9.4524,-13.87439 1.6355,-13.03636 -2.1349,-22.09914 -9.9612,-23.94393 -0.9333,-0.21998 -2.1755,-0.40173 -2.7606,-0.40388 -1.4456,-0.005 -4.7152,0.92998 -6.1115,1.74828 -1.3792,0.8083 -3.6259,3.2094 -4.3728,4.67344 -3.1416,6.15814 -2.9891,18.18257 0.3194,25.18506 2.6533,5.61587 7.5164,8.01054 13.4343,6.61542 z m -84.3647,4.64298 c -4.3592,-0.56273 -8.0135,-3.02347 -9.5083,-6.40276 -0.9122,-2.06221 -1.0692,-5.09375 -1.0692,-20.65054 v -15.02204 h -2.6458 -2.6458 v -2.38125 -2.38125 h 2.6458 2.6458 v -6.45399 c 0,-5.90016 0.04,-6.46977 0.4631,-6.63798 0.8421,-0.33465 7.0067,-2.51845 7.1093,-2.51845 0.055,0 0.1005,3.51234 0.1005,7.80521 v 7.80521 h 4.3657 4.3656 v 2.38125 2.38125 h -4.3656 -4.3657 v 16.14619 c 0,15.49406 0.022,16.2073 0.5318,17.65911 0.2925,0.8321 0.9184,1.89953 1.3909,2.37206 0.9759,0.97594 3.163,1.83161 5.3336,2.08672 l 1.475,0.17336 v 1.94794 1.94795 l -2.1828,-0.0347 c -1.2006,-0.0191 -2.8403,-0.11957 -3.6439,-0.2233 z m 15.0871,-36.24431 v -35.70855 l 0.9922,-0.26921 c 1.0558,-0.28645 5.442,-1.70236 6.2177,-2.00714 0.438,-0.17206 0.463,0.70138 0.463,16.11827 0,8.9651 0.051,16.30018 0.1136,16.30018 0.062,0 0.8066,-0.45667 1.6537,-1.01482 6.5308,-4.30348 15.3153,-5.52995 20.8783,-2.915 2.8251,1.32795 5.5416,4.68173 6.7659,8.35321 0.5932,1.77867 0.5992,1.94717 0.6917,19.32297 l 0.093,17.52864 h -3.8388 -3.8388 l -0.082,-16.47031 c -0.082,-16.46816 -0.082,-16.47054 -0.6967,-18.19011 -1.5768,-4.40886 -4.5851,-6.87916 -8.3773,-6.87916 -2.7211,0 -7.7466,1.96222 -11.6269,4.53968 l -1.7296,1.14886 v 17.92552 17.92552 h -3.8365 -3.8365 v -35.70855 z m 94.5207,15.81217 0.068,-19.89638 2.1166,-1.4073 c 6.2567,-4.15988 12.6054,-6.16036 19.5503,-6.16036 8.369,0 14.3435,3.86304 15.5033,10.02414 0.1647,0.87485 0.2683,8.35866 0.2683,19.38073 v 17.95555 h -3.8365 -3.8364 V 476.1832 c 0,-10.66854 -0.1002,-16.89777 -0.2883,-17.91488 -0.956,-5.17183 -4.9788,-8.17678 -10.9565,-8.18442 -3.2681,-0.004 -6.1024,0.73638 -8.9057,2.32685 l -1.9422,1.10198 -0.068,19.51302 -0.068,19.51302 h -3.8365 -3.8364 z m 52.7928,-37.71664 -0.073,-4.16719 -1.6536,-0.0788 c -1.2332,-0.0587 -1.6537,-0.17646 -1.6537,-0.46302 0,-0.31828 0.6587,-0.38425 3.8365,-0.38425 3.2338,0 3.8365,0.0623 3.8365,0.39688 0,0.30868 -0.3528,0.39687 -1.5875,0.39687 h -1.5875 v 4.23333 c 0,4.0388 -0.024,4.23334 -0.5225,4.23334 -0.495,0 -0.5263,-0.21886 -0.5953,-4.16719 z m 5.6157,-0.46302 v -4.63021 h 0.9055 0.9055 l 0.7812,2.57969 c 0.4297,1.41883 0.9315,3.1483 1.1152,3.84327 0.1837,0.69498 0.4228,1.31854 0.5315,1.3857 0.2195,0.13565 0.266,0.0233 1.8904,-4.56697 1.09,-3.08034 1.1827,-3.24062 1.8743,-3.24114 l 0.7276,-5.5e-4 v 4.63021 c 0,4.45382 -0.02,4.63021 -0.5291,4.63021 -0.5041,0 -0.5296,-0.17907 -0.5372,-3.77031 0,-2.29165 -0.099,-3.61467 -0.2403,-3.37344 -0.1276,0.21828 -0.7346,1.91492 -1.3488,3.77031 -1.0049,3.03589 -1.1783,3.37344 -1.7327,3.37344 -0.5579,0 -0.7213,-0.33085 -1.731,-3.50573 -0.6132,-1.92815 -1.2137,-3.61884 -1.3344,-3.75708 -0.1207,-0.13825 -0.2194,1.43933 -0.2194,3.50572 0,3.5807 -0.025,3.75709 -0.5292,3.75709 -0.509,0 -0.5291,-0.17639 -0.5291,-4.63021 z"
         id="path3756" />
    </g>
    <path
       style="fill:#000000;stroke-width:0.562226"
       d="m -1852.1091,220.25785 c -0.7274,-0.42365 -0.9841,-1.29872 -0.9841,-3.35627 v -2.7832 h -7.3215 -7.3217 l 0.153,-10.26062 0.153,-10.26064 7.1683,-0.15724 7.1683,-0.15747 v -2.42607 c 0,-4.34038 -0.2286,-4.28705 18.3932,-4.28705 h 16.3366 l 3.0159,1.56677 c 3.7612,1.954 6.4801,5.7241 7.0102,9.72086 l 0.3672,2.76802 71.1896,-0.0128 c 70.3364,-0.0128 71.2203,-0.0259 73.7199,-1.15438 5.5223,-2.49269 9.5578,-8.52816 9.5578,-14.29449 0,-5.86342 -4.0034,-12.00518 -9.4738,-14.53403 l -2.614,-1.20829 -76.4627,-0.28111 -76.463,-0.28112 -3.3733,-1.57336 c -4.4275,-2.06507 -8.7762,-6.39525 -10.7826,-10.73682 -1.4057,-3.0413 -1.5863,-4.07242 -1.5863,-9.05441 0,-4.8998 0.1912,-6.0283 1.4816,-8.782 2.7949,-5.96076 8.0395,-10.37632 14.2439,-11.99237 2.9352,-0.76455 11.9794,-0.87135 73.7866,-0.87135 h 70.4412 v -1.4809 c 0,-4.42253 3.2293,-9.33928 7.4881,-11.40089 2.2894,-1.10831 3.3432,-1.17387 18.87,-1.17387 10.261,0 16.8541,0.21885 17.5325,0.58201 0.851,0.45544 1.0876,1.18904 1.0876,3.37336 v 2.79135 h 7.3217 7.3215 l -0.153,10.26062 -0.153,10.26065 -7.1685,0.15745 -7.1683,0.15725 v 2.42607 c 0,4.34038 0.2289,4.28704 -18.3929,4.28704 h -16.3366 l -3.0159,-1.56676 c -3.7612,-1.954 -6.4801,-5.7241 -7.0103,-9.72086 l -0.3672,-2.76802 -71.1899,0.0128 c -70.336,0.0128 -71.22,0.0259 -73.7198,1.15437 -7.6246,3.44168 -11.3604,12.06828 -8.4936,19.61319 1.5682,4.12723 4.1468,7.04659 7.8147,8.84776 l 3.2091,1.57586 76.4627,0.28112 76.4627,0.28112 3.3734,1.57336 c 4.4275,2.06507 8.7762,6.39525 10.7829,10.73682 1.4056,3.0413 1.5862,4.07243 1.5862,9.05441 0,4.9131 -0.1891,6.02472 -1.4957,8.81298 -1.7888,3.81575 -5.2867,7.75475 -8.6222,9.70947 -5.5156,3.23233 -2.7433,3.12327 -79.3943,3.12327 h -70.4413 v 1.4809 c 0,4.42253 -3.2293,9.33929 -7.4879,11.40089 -2.2934,1.1102 -3.3225,1.17295 -18.9737,1.15678 -10.1906,-0.0106 -16.9267,-0.23727 -17.5325,-0.59016 z m 33.5166,-5.79022 c 3.7142,-1.55191 4.2931,-3.0191 4.2931,-10.88248 v -7.00823 l -1.9117,-1.91157 -1.9115,-1.91156 h -14.6741 -14.6741 v 10.86969 c 0,5.97836 0.1679,11.0384 0.3749,11.24454 0.2061,0.20612 6.2862,0.37482 13.5115,0.37482 9.8921,0 13.5948,-0.19146 14.9919,-0.77521 z m -34.5007,-10.75043 v -4.21669 h -4.4976 -4.4979 v 4.21669 4.2167 h 4.4979 4.4976 z m 218.0152,-74.91667 -0.153,-11.10397 -12.9311,-0.16872 c -14.3045,-0.18657 -16.2875,0.10816 -18.5122,2.752 -1.3858,1.64709 -1.4468,2.01677 -1.4468,8.76058 v 7.04091 l 1.9114,1.91156 1.9115,1.91156 h 14.686 14.6862 z m 14.7466,0.14045 v -4.2167 h -4.4977 -4.4979 v 4.2167 4.21669 h 4.4979 4.4977 z"
       id="path4080" />
    <path
       style="fill:none;stroke:#000000;stroke-width:3;stroke-linecap:butt;stroke-linejoin:miter;stroke-miterlimit:4;stroke-dasharray:3, 3;stroke-dashoffset:0;stroke-opacity:1;marker-end:url(#Arrow1Mend)"
       d="m -1624.2279,81.107273 h -228.0529"
       id="path4154" />
    <path
       style="fill:none;stroke:#000000;stroke-width:3;stroke-linecap:butt;stroke-linejoin:miter;stroke-miterlimit:4;stroke-dasharray:3, 3;stroke-dashoffset:0;stroke-opacity:1;marker-end:url(#Arrow1Mend)"
       d="M -1858.1929,247.57625 H -1630.14"
       id="path4530" />
    <text
       xml:space="preserve"
       style="font-style:normal;font-weight:normal;font-size:23.7107px;line-height:1.25;font-family:sans-serif;fill:#000000;fill-opacity:1;stroke:none;stroke-width:0.59277"
       x="-1800.5913"
       y="65.39463"
       id="text5783"><tspan
         sodipodi:role="line"
         id="tspan5781"
         style="font-style:normal;font-variant:normal;font-weight:normal;font-stretch:normal;font-family:'Yu Mincho';-inkscape-font-specification:'Yu Mincho';stroke-width:0.59277"
         x="-1800.5913"
         y="65.39463"></tspan></text>
    <text
       xml:space="preserve"
       style="font-style:normal;font-weight:normal;font-size:23.7107px;line-height:1.25;font-family:sans-serif;fill:#000000;fill-opacity:1;stroke:none;stroke-width:0.59277"
       x="-1778.1831"
       y="275.16479"
       id="text9767"><tspan
         sodipodi:role="line"
         id="tspan9765"
         style="font-style:normal;font-variant:normal;font-weight:normal;font-stretch:normal;font-family:'Yu Mincho';-inkscape-font-specification:'Yu Mincho';stroke-width:0.59277"
         x="-1778.1831"
         y="275.16479"></tspan></text>
    <text
       xml:space="preserve"
       style="font-style:normal;font-weight:normal;font-size:23.7107px;line-height:1.25;font-family:sans-serif;fill:#000000;fill-opacity:1;stroke:none;stroke-width:0.59277"
       x="-2123.9067"
       y="-17.358734"
       id="text10797"><tspan
         sodipodi:role="line"
         id="tspan10795"
         style="font-style:normal;font-variant:normal;font-weight:normal;font-stretch:normal;font-family:'Yu Mincho';-inkscape-font-specification:'Yu Mincho';stroke-width:0.59277"
         x="-2123.9067"
         y="-17.358734"></tspan></text>
  </g>
</svg>
